<svg xmlns="http://www.w3.org/2000/svg" width="24" height="24" viewBox="0 0 24 24"><path fill="#EA4335" d="M12 4.41c1.94 0 3.63.78 4.88 2.03l2.83-2.83C17.39 2.05 14.82 1 12 1 7.6 1 3.8 3.42 1.84 7.15l3.15 2.45C6.41 6.8 9.07 4.41 12 4.41z"/><path fill="#34A853" d="M23 12c0-.75-.07-1.48-.2-2.18H12v4.36h6.42c-.29 1.54-1.25 2.82-2.6 3.68l2.74 2.13c1.69-1.57 2.76-3.88 2.76-6.09z"/><path fill="#4285F4" d="M12 23c2.92 0 5.43-1.03 7.24-2.79l-2.74-2.13c-1.12.79-2.58 1.25-4.5 1.25-2.93 0-5.45-1.97-6.39-4.66L1.84 16.85C3.8 20.58 7.6 23 12 23z"/><path fill="#FBBC04" d="M4.51 14.01c-.1-.7-.16-1.4-.16-2.1c0-.7.06-1.4.16-2.1l-3.15-2.45C1.04 8.72 1 10.33 1 12s.04 3.28.36 4.85l3.15-2.45z"/></svg>
